# xmcd CD database file
#
# Track frame offsets:
#	150
#	20550
#	46620
#	64050
#	82230
#	103825
#	124750
#	143002
#	161950
#	180587
#
# Disc length: 2712 seconds
#
# Revision: 1
# Processed by: cddbd v1.4PL0 Copyright (c) Steve Scherf et al.
# Submitted via: CDex 1.40Beta8
#
DISCID=870a960a
DTITLE=Neil Murray - Calm and Crystal Clear
DYEAR=1989
DGENRE=Country
TTITLE0=Calm and Crystal Clear
TTITLE1=Horse and Rider
TTITLE2=Let's Fall in Love Again (Just for the Hell of it)
TTITLE3=Wilderness
TTITLE4=Clever Man
TTITLE5=Ocean of Regret
TTITLE6=Shakin Hand
TTITLE7=He Was Born
TTITLE8=Woman's Love
TTITLE9=One More Mile
EXTD=YEAR: 1989 ID3G: 2
EXTT0=
EXTT1=
EXTT2=
EXTT3=
EXTT4=
EXTT5=
EXTT6=
EXTT7=
EXTT8=
EXTT9=
PLAYORDER=
